<?xml version="1.0" encoding="UTF-8" standalone="no"?>
<!-- Created with Inkscape (http://www.inkscape.org/) -->

<svg
   width="210mm"
   height="297mm"
   viewBox="0 0 210 297"
   version="1.1"
   id="svg5"
   inkscape:version="1.1 (c68e22c387, 2021-05-23)"
   sodipodi:docname="drawing.svg"
   xmlns:inkscape="http://www.inkscape.org/namespaces/inkscape"
   xmlns:sodipodi="http://sodipodi.sourceforge.net/DTD/sodipodi-0.dtd"
   xmlns:xlink="http://www.w3.org/1999/xlink"
   xmlns="http://www.w3.org/2000/svg"
   xmlns:svg="http://www.w3.org/2000/svg">
  <sodipodi:namedview
     id="namedview7"
     pagecolor="#ffffff"
     bordercolor="#111111"
     borderopacity="1"
     inkscape:pageshadow="0"
     inkscape:pageopacity="0"
     inkscape:pagecheckerboard="1"
     inkscape:document-units="mm"
     showgrid="false"
     inkscape:zoom="0.23162177"
     inkscape:cx="-481.38825"
     inkscape:cy="1008.109"
     inkscape:window-width="1366"
     inkscape:window-height="705"
     inkscape:window-x="-8"
     inkscape:window-y="-8"
     inkscape:window-maximized="1"
     inkscape:current-layer="layer1" />
  <defs
     id="defs2">
    <linearGradient
       inkscape:collect="always"
       id="linearGradient17930">
      <stop
         style="stop-color:#7f2aff;stop-opacity:1;"
         offset="0"
         id="stop17926" />
      <stop
         style="stop-color:#7f2aff;stop-opacity:0;"
         offset="1"
         id="stop17928" />
    </linearGradient>
    <linearGradient
       inkscape:collect="always"
       xlink:href="#linearGradient1870"
       id="linearGradient1872"
       x1="-348.56372"
       y1="-150.35625"
       x2="-101.20956"
       y2="-150.35625"
       gradientUnits="userSpaceOnUse"
       gradientTransform="matrix(1.70717,0,0,1.1478844,105.08216,13.912966)" />
    <linearGradient
       inkscape:collect="always"
       id="linearGradient1870">
      <stop
         style="stop-color:#00ff66;stop-opacity:1;"
         offset="0"
         id="stop1866" />
      <stop
         style="stop-color:#00ff66;stop-opacity:0;"
         offset="1"
         id="stop1868" />
    </linearGradient>
    <linearGradient
       inkscape:collect="always"
       xlink:href="#linearGradient17930"
       id="linearGradient17932"
       x1="-223.03543"
       y1="158.5974"
       x2="137.71988"
       y2="158.5974"
       gradientUnits="userSpaceOnUse" />
  </defs>
  <g
     inkscape:label="Layer 1"
     inkscape:groupmode="layer"
     id="layer1">
    <rect
       style="fill:#000080;fill-opacity:0.87096769;stroke:#000000;stroke-width:0.264999;stroke-opacity:0.01"
       id="rect1896"
       width="213.24165"
       height="300.47687"
       x="-1.6154671"
       y="-2.4232004"
       ry="1.6012292e-06" />
    <rect
       style="fill:url(#linearGradient17932);fill-opacity:1;stroke:#000000;stroke-width:1.31232;stroke-opacity:0.01"
       id="rect1412"
       width="359.44299"
       height="337.69876"
       x="-222.37927"
       y="-10.251977"
       ry="1.7547915e-06" />
    <rect
       style="fill:url(#linearGradient1872);fill-opacity:1;stroke:#000000;stroke-width:1.42444;stroke-opacity:0.01"
       id="rect1412-0"
       width="420.53845"
       height="340.0596"
       x="-489.10684"
       y="-328.70847"
       ry="1.7670591e-06"
       transform="scale(-1)" />
    <g
       id="g4093"
       transform="matrix(0.46522133,0.12381172,-0.12381172,0.46522133,-197.86857,531.15673)"
       style="stroke:#aaeeff;stroke-opacity:1">
      <g
         id="freepik--Device--inject-12"
         transform="translate(290.0622,237.1948)"
         style="stroke:#aaeeff;stroke-opacity:1">
        <path
           d="m 478.20005,-1208.4657 -70.15779,76.8815 a 22.66,22.66 0 0 1 -32.01921,1.4808 l -192.82251,-175.7987 a 22.68,22.68 0 0 1 -1.45918,-32.0132 l 70.15037,-76.8883 a 22.68,22.68 0 0 1 32.02663,-1.474 l 192.80703,175.7712 a 22.69,22.69 0 0 1 1.47466,32.0407 z"
           style="fill:none;stroke:#aaeeff;stroke-opacity:1"
           id="path3650" />
        <path
           d="m 257.74874,-1410.4928 -13.72336,15.0458 a 5.0614087,5.0456264 42.112086 0 0 0.50049,7.1452 l 2.74843,2.4844 a 5.0614087,5.0456264 42.112086 0 1 0.50042,7.1451 l -26.77017,29.3429 a 5.0614087,5.0456264 42.112086 0 1 -7.16964,0.1573 l -2.7485,-2.4845 a 5.0614087,5.0456264 42.112086 0 0 -7.16964,0.1573 l -4.80459,5.3151 -11.99777,13.1368 a 16.075034,16.024909 42.112086 0 0 1.07907,22.6724 l 190.51993,173.6901 a 16.085157,16.035001 42.112086 0 0 22.67625,-1.0082 l 70.64953,-77.4317 a 16.075034,16.024909 42.112086 0 0 -1.07906,-22.6723 L 280.4402,-1411.4873 a 16.085157,16.035001 42.112086 0 0 -22.69131,0.9947 z"
           style="fill:#00aa88;fill-opacity:0;stroke:#aaeeff;stroke-width:1.0107;stroke-opacity:1"
           id="path3652" />
      </g>
    </g>
    <g
       id="g15743"
       transform="matrix(-0.17315565,0.05137157,-0.05137157,-0.17315565,-57.84395,50.96999)"
       style="fill:none;stroke:#aaeeff;stroke-opacity:1">
      <g
         id="freepik--Money--inject-1"
         transform="translate(-527.52072,644.2509)"
         style="fill:none;stroke:#aaeeff;stroke-opacity:1">
        <g
           id="g16580"
           transform="translate(-248.80737,-85.479831)"
           style="fill:none;stroke:#aaeeff;stroke-opacity:1">
          <g
             id="g17176"
             style="fill:none;stroke:#aaeeff;stroke-opacity:1">
            <g
               id="g17198"
               transform="matrix(1.1986106,0,0,1.1986106,513.88152,-863.53314)"
               style="fill:none;stroke:#aaeeff;stroke-opacity:1">
              <g
                 id="g17191"
                 transform="matrix(2.0694416,0,0,2.0694416,-281.96425,-375.464)"
                 style="fill:none;stroke:#aaeeff;stroke-opacity:1">
                <g
                   id="g17185"
                   transform="rotate(-96.972604,130.72459,210.16151)"
                   style="fill:none;stroke:#aaeeff;stroke-opacity:1">
                  <g
                     id="g17180"
                     style="fill:none;stroke:#aaeeff;stroke-opacity:1">
                    <rect
                       x="71"
                       y="98.300003"
                       width="119.46"
                       height="223.67999"
                       transform="rotate(-39.84,130.75698,210.15822)"
                       style="fill:none;stroke:#aaeeff;stroke-linecap:round;stroke-miterlimit:10;stroke-opacity:1"
                       id="rect15277" />
                    <path
                       d="m 39.22,171.22 a 6.14,6.14 0 0 1 -0.72,0.54 l 112,134.17 a 6.52,6.52 0 0 1 0.66,-0.62 8.77,8.77 0 0 1 13.6,3.15 l 57.35,-47.86 a 8.43,8.43 0 0 1 -1.78,-1.61 8.75,8.75 0 0 1 1.12,-12.33 L 109.51,112.57 a 8.76,8.76 0 0 1 -12.34,-1.12 l -56.84,47.43 a 8.77,8.77 0 0 1 -1.11,12.34 z m 70.84,14.15 a 32.26,32.26 0 1 1 -4.1,45.44 32.26,32.26 0 0 1 4.1,-45.44 z"
                       style="fill:none;stroke:#aaeeff;stroke-linecap:round;stroke-miterlimit:10;stroke-opacity:1"
                       id="path15279" />
                  </g>
                </g>
              </g>
            </g>
          </g>
        </g>
      </g>
    </g>
    <g
       style="d:none;color:#212529;font-style:normal;font-variant:normal;font-weight:400;font-size:16px;line-height:24px;font-family:Averta, 'Helvetica Neue', 'Open Sans', Arial, sans-serif;font-variant-ligatures:normal;font-variant-caps:normal;font-variant-numeric:normal;font-variant-east-asian:normal;text-indent:0px;text-align:center;text-decoration:none;text-decoration-line:none;text-decoration-style:solid;text-decoration-color:#212529;letter-spacing:normal;word-spacing:0px;text-transform:none;writing-mode:lr-tb;direction:ltr;dominant-baseline:auto;baseline-shift:0px;text-anchor:start;white-space:normal;shape-margin:0px;inline-size:157.5px;clip-rule:nonzero;display:inline;visibility:visible;opacity:1;isolation:auto;mix-blend-mode:normal;vector-effect:none;fill:#000000;fill-opacity:1;fill-rule:nonzero;stroke:none;stroke-width:1px;stroke-linecap:butt;stroke-linejoin:miter;stroke-miterlimit:4;stroke-dasharray:none;stroke-dashoffset:0px;stroke-opacity:1;marker-start:none;marker-mid:none;marker-end:none;paint-order:normal;color-rendering:auto;image-rendering:auto;shape-rendering:auto;text-rendering:auto;stop-color:#000000;stop-opacity:1;-webkit-app-region:none;-webkit-border-horizontal-spacing:0px;-webkit-border-image:none;-webkit-border-vertical-spacing:0px;-webkit-box-align:stretch;-webkit-box-decoration-break:slice;-webkit-box-direction:normal;-webkit-box-flex:0;-webkit-box-ordinal-group:1;-webkit-box-orient:horizontal;-webkit-box-pack:start;-webkit-box-reflect:none;-webkit-font-smoothing:antialiased;-webkit-highlight:none;-webkit-hyphenate-character:auto;-webkit-line-break:auto;-webkit-line-clamp:none;-webkit-locale:'en';-webkit-mask-box-image:none;-webkit-mask-box-image-outset:0;-webkit-mask-box-image-repeat:stretch;-webkit-mask-box-image-slice:0 fill;-webkit-mask-box-image-source:none;-webkit-mask-box-image-width:auto;-webkit-mask-clip:border-box;-webkit-mask-composite:source-over;-webkit-mask-image:none;-webkit-mask-origin:border-box;-webkit-mask-position:0% 0%;-webkit-mask-repeat:repeat;-webkit-mask-size:auto;-webkit-print-color-adjust:economy;-webkit-rtl-ordering:logical;-webkit-tap-highlight-color:rgba(0, 0, 0, 0);-webkit-text-combine:none;-webkit-text-decorations-in-effect:none;-webkit-text-emphasis-color:rgb(33, 37, 41);-webkit-text-emphasis-position:over right;-webkit-text-emphasis-style:none;-webkit-text-fill-color:rgb(33, 37, 41);-webkit-text-orientation:vertical-right;-webkit-text-security:none;-webkit-text-stroke-color:rgb(33, 37, 41);-webkit-text-stroke-width:0px;-webkit-user-drag:auto;-webkit-user-modify:read-only;-webkit-writing-mode:horizontal-tb"
       id="g18105"
       transform="matrix(0.26070685,0,0,0.26070685,168.9587,456.23045)">
      <g
         id="g20776"
         transform="matrix(1.0148691,0,0,1.0148691,-1318.7583,834.23094)">
        <g
           id="g22642">
          <g
             id="freepik--Coins--inject-17"
             transform="translate(94.982437,252.56694)">
            <g
               id="g19909"
               transform="translate(47.221382,5.8014841)">
              <path
                 d="m 253.61731,452.33044 a 32.09,32.09 0 0 1 17,12.92 22.15,22.15 0 0 1 3.47,10.5 l 1.48,0.5 -2.81,7.67 v 0 c -2.15,5.26 -6.74,9.64 -13.35,12 a 33.38,33.38 0 0 1 -21.6,-0.23 z"
                 style="opacity:0.1;fill:none;stroke:#aaeeff;stroke-opacity:1"
                 id="path19847" />
              <g
                 id="g22241">
                <g
                   id="g22575"
                   transform="matrix(3.7669631,0,0,3.7669631,-744.21785,-1883.9043)">
                  <g
                     id="g22973"
                     transform="matrix(2.448369,0,0,2.448369,-243.64931,-990.92229)"
                     style="opacity:0.5">
                    <ellipse
                       cx="241.78999"
                       cy="416.95001"
                       rx="21.42"
                       ry="26.790001"
                       transform="rotate(-73.49,241.77677,416.9383)"
                       style="fill:none;stroke:#aaeeff;stroke-opacity:1"
                       id="ellipse19861" />
                    <path
                       d="m 259,410.9 c 5,8 2,17.08 -6.64,20.76 -0.37,0.16 -0.75,0.31 -1.14,0.44 -9.52,3.35 -21.47,-0.73 -26.69,-9.1 -5.22,-8.37 -1.75,-17.87 7.77,-21.21 0.39,-0.14 0.78,-0.26 1.18,-0.37 9.34,-2.63 20.52,1.45 25.52,9.48 z"
                       style="fill:none;stroke:#aaeeff;stroke-opacity:1"
                       id="path19873" />
                    <path
                       d="m 259,410.9 c 5,8 2,17.08 -6.64,20.76 -0.37,0.16 -0.75,0.31 -1.14,0.44 -9.52,3.35 -21.47,-0.73 -26.69,-9.1 -5.22,-8.37 -1.75,-17.87 7.77,-21.21 0.39,-0.14 0.78,-0.26 1.18,-0.37 9.34,-2.63 20.52,1.45 25.52,9.48 z"
                       style="opacity:0.2;fill:none;stroke:#aaeeff;stroke-opacity:1"
                       id="path19875" />
                    <path
                       d="m 251.58,425.14 c 0.17,-0.49 0.9,-2.46 1.08,-3 A 4.64,4.64 0 0 0 252,418.03 v -0.05 c -1.72,-2.75 -4.31,-3.35 -6.83,-3.34 v 0 a 27.33,27.33 0 0 0 -3.09,0.23 23.07,23.07 0 0 1 -3.31,0.24 v 0 a 3.77,3.77 0 0 1 -1.42,-0.29 2.33,2.33 0 0 1 -1,-0.79 l 0.12,-0.06 0.37,-0.14 a 6.15,6.15 0 0 1 0.95,-0.26 4.12,4.12 0 0 1 4.05,1.24 l 3.5,-2.42 1.08,-2.95 a 8.54,8.54 0 0 0 -6.21,-2.47 12.48,12.48 0 0 0 -2.37,0.27 l -1.64,-2.62 -3.56,1.25 -1.08,2.94 0.67,1.08 a 4.38,4.38 0 0 0 -1,1.58 l -1.07,2.94 a 4.62,4.62 0 0 0 0.7,4.12 6.73,6.73 0 0 0 3.26,2.81 v 0 a 6.91,6.91 0 0 0 0.77,0.25 12.39,12.39 0 0 0 4.54,0.18 l 0.93,-0.1 -3.5,2.42 -1.08,2.94 c 2.62,2.94 6.14,3.17 9.11,2.51 l 1.62,2.6 3.57,-1.25 1.08,-2.95 -0.67,-1.08 a 4.77,4.77 0 0 0 1.09,-1.72 z m -5.73,-2.24 a 7,7 0 0 1 -0.81,0.22 4.69,4.69 0 0 1 -4.55,-1.45 c 2.55,-0.31 4.69,-0.61 5.82,1 z"
                       style="fill:none;stroke:#aaeeff;stroke-opacity:1"
                       id="path19885" />
                    <path
                       d="m 245.14,414.67 v 0 a 27.33,27.33 0 0 0 -3.09,0.23 23.07,23.07 0 0 1 -3.31,0.24 v 0 a 3.77,3.77 0 0 1 -1.42,-0.29 2.39,2.39 0 0 1 -1.12,-1 c -0.63,-1 -0.38,-2.09 1.34,-2.81 0.12,-0.06 0.24,-0.1 0.37,-0.15 a 7.53,7.53 0 0 1 1,-0.26 4.1,4.1 0 0 1 4,1.25 l 3.5,-2.43 a 8.54,8.54 0 0 0 -6.21,-2.47 12.48,12.48 0 0 0 -2.37,0.27 l -1.64,-2.62 -3.56,1.25 1.62,2.59 v 0 c -3.21,1.64 -4.18,4.14 -2.33,7.1 a 6.68,6.68 0 0 0 3.26,2.81 v 0 a 7,7 0 0 0 0.77,0.26 12.39,12.39 0 0 0 4.54,0.18 c 3.09,-0.32 5.77,-1 7,1 0.85,1.36 0.08,2.44 -1.61,3 a 7,7 0 0 1 -0.81,0.22 4.66,4.66 0 0 1 -4.61,-1.52 l -3.65,2.52 c 2.62,2.93 6.14,3.16 9.11,2.51 l 1.62,2.59 3.57,-1.25 -1.62,-2.59 c 3.19,-1.67 4.43,-4.24 2.54,-7.32 v -0.05 c -1.78,-2.67 -4.37,-3.27 -6.89,-3.26 z"
                       style="fill:none;stroke:#aaeeff;stroke-opacity:1"
                       id="path19887" />
                    <g
                       style="opacity:0.3;fill:none;stroke:#aaeeff;stroke-opacity:1"
                       id="g19891">
                      <path
                         d="m 245.14,414.67 v 0 a 27.33,27.33 0 0 0 -3.09,0.23 23.07,23.07 0 0 1 -3.31,0.24 v 0 a 3.77,3.77 0 0 1 -1.42,-0.29 2.39,2.39 0 0 1 -1.12,-1 c -0.63,-1 -0.38,-2.09 1.34,-2.81 0.12,-0.06 0.24,-0.1 0.37,-0.15 a 7.53,7.53 0 0 1 1,-0.26 4.1,4.1 0 0 1 4,1.25 l 3.5,-2.43 a 8.54,8.54 0 0 0 -6.21,-2.47 12.48,12.48 0 0 0 -2.37,0.27 l -1.64,-2.62 -3.56,1.25 1.62,2.59 v 0 c -3.21,1.64 -4.18,4.14 -2.33,7.1 a 6.68,6.68 0 0 0 3.26,2.81 v 0 a 7,7 0 0 0 0.77,0.26 12.39,12.39 0 0 0 4.54,0.18 c 3.09,-0.32 5.77,-1 7,1 0.85,1.36 0.08,2.44 -1.61,3 a 7,7 0 0 1 -0.81,0.22 4.66,4.66 0 0 1 -4.61,-1.52 l -3.65,2.52 c 2.62,2.93 6.14,3.16 9.11,2.51 l 1.62,2.59 3.57,-1.25 -1.62,-2.59 c 3.19,-1.67 4.43,-4.24 2.54,-7.32 v -0.05 c -1.78,-2.67 -4.37,-3.27 -6.89,-3.26 z"
                         style="fill:none;stroke:#aaeeff;stroke-opacity:1"
                         id="path19889" />
                    </g>
                    <path
                       d="m 252,418 v 0.05 c 1.89,3.08 0.65,5.65 -2.54,7.32 3.15,-2.36 3.57,-4.61 2,-7.12 a 8.25,8.25 0 0 0 -6.32,-3.59 c 2.52,0 5.11,0.6 6.86,3.34 z"
                       style="opacity:0.45;fill:none;stroke:#aaeeff;stroke-opacity:1"
                       id="path19897" />
                    <polygon
                       points="249.46,425.38 250.53,427.82 247.51,429.22 251.08,427.97 "
                       style="opacity:0.45;fill:none;stroke:#aaeeff;stroke-opacity:1"
                       id="polygon19899" />
                  </g>
                </g>
              </g>
            </g>
          </g>
        </g>
      </g>
    </g>
  </g>
</svg>
